# xmcd
#
# Track frame offsets:
# 182
# 22265
# 47395
# 69622
# 98607
# 133180
# 160392
# 190347
# 223872
# 249190
#
# Disc length: 3615 seconds
#
#
# Revision: 0
# Processed by: cddbd v1.5.1PL0 Copyright (c) Steve Scherf et al.
# Submitted via: FreeRIP 2.30 
#
DISCID=8d0e1d0a
DTITLE=Various Artist - Country Naturally
DYEAR=1994
DGENRE=Country
TTITLE0=Range Rider
TTITLE1=I Fall To Pieces
TTITLE2=Creekside
TTITLE3=Montana Morning
TTITLE4=Prairie Suite
TTITLE5=Thunder Rolls
TTITLE6=If Love
TTITLE7=Wings of Morning
TTITLE8=Achy Breaky Heart
TTITLE9=Bayou Nights
EXTD=
EXTT0=
EXTT1=
EXTT2=
EXTT3=
EXTT4=
EXTT5=
EXTT6=
EXTT7=
EXTT8=
EXTT9=
PLAYORDER=
